# xmcd CD database file
#
# Track frame offsets:
#	150
#	11956
#	32643
#	49027
#	59730
#	75031
#	85770
#	95111
#	104228
#	116842
#	127282
#	143495
#	153214
#	177528
#
# Disc length: 2538 seconds
#
# Revision: 0
# Processed by: cddbd v1.4PL0 Copyright (c) Steve Scherf et al.
# Submitted via: CDex 1.50
#
DISCID=c209e80e
DTITLE=Tim Janis - Flowers in October
DYEAR=2003
DGENRE=New Age
TTITLE0=Isles of Shoals
TTITLE1=Cathedral of the Pines
TTITLE2=Cry of the Blue Whale
TTITLE3=A Midnight Full of Stars
TTITLE4=The White Mountains
TTITLE5=Ocean Ledges
TTITLE6=Harvest Moon
TTITLE7=Penobscot Trail
TTITLE8=September
TTITLE9=Mountain Road
TTITLE10=Echo Lake
TTITLE11=Dandelion Star
TTITLE12=Flowers in October
TTITLE13=In Autumn Gold
EXTD=YEAR: 2003
EXTT0=
EXTT1=
EXTT2=
EXTT3=
EXTT4=
EXTT5=
EXTT6=
EXTT7=
EXTT8=
EXTT9=
EXTT10=
EXTT11=
EXTT12=
EXTT13=
PLAYORDER=
